<svg xmlns="http://www.w3.org/2000/svg" viewBox="0 0 1024 1024">
  <defs>
    <linearGradient id="paintnode-bg" x1="124" y1="84" x2="900" y2="940" gradientUnits="userSpaceOnUse">
      <stop offset="0" stop-color="#2a174c"/>
      <stop offset="0.48" stop-color="#4b1f7a"/>
      <stop offset="1" stop-color="#1b1236"/>
    </linearGradient>
    <linearGradient id="curve-a" x1="150" y1="724" x2="870" y2="486" gradientUnits="userSpaceOnUse">
      <stop offset="0" stop-color="#ff6bd6"/>
      <stop offset="0.54" stop-color="#c15dff"/>
      <stop offset="1" stop-color="#8f62ff"/>
    </linearGradient>
    <linearGradient id="curve-b" x1="150" y1="612" x2="870" y2="420" gradientUnits="userSpaceOnUse">
      <stop offset="0" stop-color="#7b5dff"/>
      <stop offset="0.5" stop-color="#965fff"/>
      <stop offset="1" stop-color="#ff75da"/>
    </linearGradient>
    <linearGradient id="node-fill" x1="528" y1="216" x2="856" y2="544" gradientUnits="userSpaceOnUse">
      <stop offset="0" stop-color="#ffffff"/>
      <stop offset="0.52" stop-color="#eed6ff"/>
      <stop offset="1" stop-color="#ffb2ea"/>
    </linearGradient>
    <filter id="soft-shadow" x="-20%" y="-20%" width="140%" height="150%">
      <feDropShadow dx="0" dy="26" stdDeviation="30" flood-color="#0b0520" flood-opacity="0.45"/>
    </filter>
    <filter id="node-shadow" x="-45%" y="-45%" width="190%" height="190%">
      <feDropShadow dx="0" dy="13" stdDeviation="14" flood-color="#16042a" flood-opacity="0.44"/>
    </filter>
  </defs>

  <g transform="translate(512 512) scale(0.88) translate(-512 -512)">
    <rect x="76" y="76" width="872" height="872" rx="196" fill="url(#paintnode-bg)"/>

    <g filter="url(#soft-shadow)">
      <path
        d="M138 718c152-82 283-119 416-110 132 9 214 62 336-4"
        fill="none"
        stroke="url(#curve-a)"
        stroke-width="66"
        stroke-linecap="round"
        stroke-linejoin="round"
      />
      <path
        d="M140 602c130-72 254-108 398-96 141 12 222 59 349 0"
        fill="none"
        stroke="url(#curve-b)"
        stroke-width="62"
        stroke-linecap="round"
        stroke-linejoin="round"
        opacity="0.82"
      />
      <path
        d="M558 278l98 154 144-54"
        fill="none"
        stroke="#ffe6ff"
        stroke-width="40"
        stroke-linecap="round"
        stroke-linejoin="round"
        opacity="0.82"
      />
    </g>

    <g filter="url(#node-shadow)">
      <circle cx="558" cy="278" r="72" fill="url(#node-fill)"/>
      <circle cx="656" cy="432" r="51" fill="url(#node-fill)" opacity="0.92"/>
      <circle cx="800" cy="378" r="56" fill="url(#node-fill)" opacity="0.98"/>
    </g>
  </g>
</svg>
